<?xml version="1.0" standalone="no"?>
<!DOCTYPE svg PUBLIC "-//W3C//DTD SVG 1.1//EN" "http://www.w3.org/Graphics/SVG/1.1/DTD/svg11.dtd" >
<!--
2016-4-29: Created.
-->
<svg xmlns="http://www.w3.org/2000/svg">
<metadata>
Created by FontForge 20120731 at Fri Apr 29 09:15:35 2016
 By Apache
Created by Apache with FontForge 2.0 (http://fontforge.sf.net)
</metadata>
<defs>
<font id="Flaticon" horiz-adv-x="512" >
  <font-face 
    font-family="Flaticon"
    font-weight="500"
    font-stretch="normal"
    units-per-em="512"
    panose-1="2 0 6 3 0 0 0 0 0 0"
    ascent="448"
    descent="-64"
    bbox="-0.0390625 -64.082 512 448.025"
    underline-thickness="25.6"
    underline-position="-51.2"
    unicode-range="U+0020-F113"
  />
    <missing-glyph />
    <glyph glyph-name="space" unicode=" " horiz-adv-x="200" 
 />
    <glyph glyph-name="uniF107" unicode="&#xf107;" 
d="M0 408.615v39.3848h512v-39.3848h-512zM-0 251.077v39.3848h512v-39.3848h-512zM-0 93.5381v39.3848h512v-39.3848h-512zM-0 -64v39.3027h512v-39.3027h-512z" />
    <glyph glyph-name="uniF110" unicode="&#xf110;" 
d="M512 -29.3525l-26.9297 -24.877l-228.167 210.35c-26.9307 -20.6895 -60.7568 -33.1699 -97.458 -33.1699c-88.0967 0 -159.445 70.5273 -159.445 157.64c0 87.0303 71.3486 157.64 159.363 157.64c88.0156 0 159.364 -70.6094 159.364 -157.64
c0 -37.5215 -13.3008 -71.9229 -35.4688 -99.0166zM159.363 398.819c-66.0928 0 -119.625 -52.874 -119.625 -118.229c0 -65.2725 53.5322 -118.229 119.625 -118.229c65.9297 0 119.462 52.957 119.462 118.229s-53.5322 118.229 -119.462 118.229z" />
    <glyph glyph-name="uniF100" unicode="&#xf100;" 
d="M265.928 -64h-187.24v512h165.333c52.8408 0 94.2773 -11.5693 124.226 -34.626c29.9492 -23.1377 44.8818 -57.7637 44.8818 -103.959c0 -22.7275 -7.1377 -43.0762 -21.5791 -61.0459c-14.3594 -17.8867 -33.2305 -31.2617 -56.6973 -39.877
c30.6045 -6.56445 54.7275 -21.6611 72.2051 -45.374c17.4766 -23.6309 26.2559 -51.2002 26.2559 -82.626c0 -46.8516 -15.0146 -82.708 -45.1279 -107.405c-30.0303 -24.7793 -70.7285 -37.0869 -122.257 -37.0869zM276.021 175.836h-128.738v-185.354h118.646
c31.0977 0 55.3027 7.71289 72.6982 23.3027c17.3945 15.5889 26.0918 37.5791 26.0918 66.0508c0 29.8662 -7.2207 53.415 -21.7432 70.4004c-14.4414 17.0664 -36.7588 25.5996 -66.9541 25.5996zM147.282 393.436v-163.117h111.016
c25.5176 0 46.2764 7.05566 62.2764 21.251c16 14.1943 24.041 33.9688 24.041 59.2412c0 27.6514 -8.69727 48.3281 -25.9277 62.0303c-17.3135 13.7031 -42.1748 20.5947 -74.667 20.5947h-96.7383z" />
    <glyph glyph-name="uniF10E" unicode="&#xf10e;" 
d="M174.379 -53.9941l-7.9082 -10.0059h-127.657h-38.7324v38.7324v127.093l9.9248 8.55371l337.702 337.621l164.211 -164.373l-337.54 -337.621v0zM39.6201 85.1211l-0.806641 -0.806641v-109.582h109.582l0.806641 0.807617
c11.2969 24.8535 9.68359 53.9033 -4.76074 77.4658l-27.4355 27.3545c-23.4824 14.4443 -52.5322 15.9775 -77.3857 4.76074zM347.708 393.209l-267.741 -267.821c21.3838 -1.12988 42.5254 -8.06934 61.0049 -21.1416l247.729 247.89zM168.326 76.8906
c12.9111 -18.3975 19.8506 -39.459 21.1416 -61.0039l267.741 267.821l-41.1533 41.0732z" />
    <glyph glyph-name="uniF10F" unicode="&#xf10f;" 
d="M0 408.615v39.3848h512v-39.3848h-512zM118.072 251.077v39.3848h393.928v-39.3848h-393.928zM-0 93.5381v39.3848h512v-39.3848h-512v0zM118.072 -64v39.3027h393.928v-39.3027h-393.928z" />
    <glyph glyph-name="uniF101" unicode="&#xf101;" 
d="M0 -64v512h39.3848v-512h-39.3848zM-0 408.533v0h512v39.4668h-512v-39.4668zM472.615 -64v512h39.3848v-512h-39.3848zM-0 -64v0h512v39.3848h-512v-39.3848zM157.538 -64v393.928h39.3848v-393.928h-39.3848zM315.077 -64v393.928h39.3848v-393.928h-39.3848z
M-0 290.462v0h512v39.3838h-512v-39.3838zM-0 172.39v-0.0820312h512v39.3027h-512v-39.2207zM-0 54.0723v0.0820312h512v39.3838h-512v-39.4658z" />
    <glyph glyph-name="uniF102" unicode="&#xf102;" 
d="M0 408.615v39.3848h512v-39.3848h-512zM-0 93.5381v39.3848h512v-39.3848h-512zM118.154 251.077v39.3848h275.691v-39.3848h-275.691zM118.154 -64v39.3027h275.691v-39.3027h-275.691z" />
    <glyph glyph-name="uniF111" unicode="&#xf111;" 
d="M433.148 290.462c-20.3486 0 -38.8096 8.04102 -52.7588 20.6768l-227.2 -94.6875c6.40039 -19.0361 4.34863 -32.4102 2.54395 -41.0254l224.492 -102.729c14.0312 12.7998 32.5742 20.8408 52.9229 20.8408c43.5693 0 78.8516 -35.2812 78.8516 -78.6865
c0 -43.5693 -35.2822 -78.8516 -78.8516 -78.8516c-43.4053 0 -78.6865 35.2822 -78.6865 78.8516c0 8.61523 1.72266 16.6562 4.34863 24.5332l-220.965 100.923c-14.6045 -16.4922 -35.4453 -27.0771 -59.1582 -27.0771c-43.4053 0 -78.6875 35.2822 -78.6875 78.8516
c0 43.4053 35.2822 78.6875 78.6875 78.6875c20.5127 0 38.9736 -8.04102 52.9229 -20.6768l227.118 94.6865c-2.46191 7.71289 -4.2666 15.918 -4.2666 24.5332c0 43.4053 35.2812 78.6875 78.6865 78.6875c43.6514 0 78.8516 -35.2822 78.8516 -78.6875
c0 -43.5693 -35.2002 -78.8506 -78.8516 -78.8506zM433.148 -24.6152c21.8262 0 39.3848 17.6406 39.3848 39.3848c0 21.6611 -17.6406 39.3848 -39.3848 39.3848c-21.6611 0 -39.3027 -17.8057 -39.3027 -39.3848c0.0820312 -21.7441 17.7236 -39.3848 39.3027 -39.3848z
M78.6875 231.303c-21.6621 0 -39.3027 -17.6416 -39.3027 -39.3027c0 -21.8252 17.6406 -39.3848 39.3027 -39.3848c21.8252 0 39.3848 17.6416 39.3848 39.3848s-17.5596 39.3027 -39.3848 39.3027zM433.148 408.533c-21.6611 0 -39.3027 -17.6406 -39.3027 -39.2207
c0 -21.8252 17.6416 -39.3848 39.3027 -39.3848c21.8262 0 39.3848 17.6416 39.3848 39.3848c0.0820312 21.6621 -17.5586 39.2207 -39.3848 39.2207z" />
    <glyph glyph-name="uniF103" unicode="&#xf103;" 
d="M512 -64h-512v512l420.021 -0.246094l91.8154 -91.7334zM118.154 -24.6152h275.691v157.538h-275.691v-157.538zM334.77 408.615h-157.539v-157.538h157.539v157.538zM407.303 408.615h-33.1484v-196.923h-236.309v196.923h-98.4609v-433.23h39.3848v196.923h354.461
v-196.923h39.3848v367.918zM236.308 270.77h-39.3848v118.153h39.3848v-118.153zM157.538 93.5381h196.924v-39.3838h-196.924v39.3838v0z" />
    <glyph glyph-name="uniF113" unicode="&#xf113;" 
d="M365.89 53.5605c-27.9746 -24.5293 -64.3994 -36.7529 -109.438 -36.7529c-44.3828 0 -80.3975 12.3057 -107.798 36.917c-27.5654 24.6113 -41.3477 59.9697 -41.3477 106.075v288.2h34.6201v-287.954c0 -36.1787 10.583 -64.1533 31.749 -83.9248
c21.166 -19.6895 48.7305 -29.5332 82.8584 -29.5332c34.6201 0 62.8408 9.76172 84.417 29.3691c21.8223 19.6895 32.6514 47.7461 32.6514 84.0068v288.036h34.292v-288.118c0 -46.3516 -13.9463 -81.71 -42.0039 -106.321zM98.5273 -64v39.9521h315.027v-39.8701
h-315.027v-0.0820312z" />
    <glyph glyph-name="uniF10A" unicode="&#xf10a;" 
d="M204.817 -64v388.99l175.045 -0.170898l111.323 -111.322l0.255859 -277.497h-286.624v0zM368.603 273.125v-70.8887h70.8887zM450.495 161.29h-122.839v122.839h-81.8926v-307.098h204.731v184.259zM61.334 169.991l73.3623 73.2773l29.3447 -29.2598l-73.2764 -73.3623
zM61.334 418.74l29.3447 29.2598l73.2773 -73.2773l-29.2598 -29.3447l-73.3623 73.3623v0zM122.925 284.129h-102.366v40.9473h102.366v-40.9473z" />
    <glyph glyph-name="uniF105" unicode="&#xf105;" 
d="M347.212 129.907v0.0820312h-86.0439c-12.3857 -23.7051 -25.5918 -45.9346 -39.6182 -66.9326c-14.1084 -20.998 -28.709 -39.4541 -43.8838 -55.2852c-15.2568 -15.8301 -31.0869 -28.5439 -47.7383 -38.0596c-16.6514 -9.43262 -33.876 -14.1904 -51.9219 -14.1904
c-16.3232 0 -30.0215 2.87109 -41.3408 8.61328c-11.1553 5.74121 -19.7676 12.7959 -25.6738 21.1621c-5.82324 8.36719 -9.35059 17.7178 -10.499 28.0527s-0.410156 20.0137 2.13281 28.9551c2.54297 8.8584 7.21777 16.5684 13.9443 22.8848
c6.72559 6.31543 14.8467 10.0068 24.4434 11.2373c10.6631 1.14844 18.6191 -1.23047 23.623 -6.88965c5.08594 -5.82422 8.12012 -12.3037 9.18652 -19.5225c1.14844 -7.13574 0.738281 -13.9443 -1.23047 -20.2598c-1.96777 -6.31641 -4.9209 -9.51562 -8.8584 -9.51562
c-7.87402 0 -13.2881 -2.54199 -16.4053 -7.70996c-3.03418 -5.16797 -4.10059 -10.8271 -2.95215 -16.8975c1.14746 -6.06934 4.42871 -11.4834 9.76074 -16.4043c5.24902 -4.83984 12.7139 -7.30078 22.3105 -7.30078c11.8115 0 23.1309 5.25 34.1221 15.585
c10.9922 10.335 22.0654 24.1152 33.3027 41.4229c11.3193 17.2246 22.5566 37.2393 33.7939 59.96c11.2373 22.8027 22.8848 46.3438 34.9424 70.8701c12.1396 24.4434 24.6904 49.2148 37.5674 74.1504c12.8789 25.0996 26.6582 48.8047 41.3408 71.2793
c-13.4521 -10.335 -28.626 -20.998 -45.5234 -31.9072c-16.8975 -10.9102 -34.6963 -20.0146 -53.5625 -27.2324c-18.8662 -7.21875 -38.2236 -11.9756 -58.2373 -14.2725c-19.9326 -2.29688 -39.5361 -0.246094 -58.5664 6.06934
c-20.834 6.97266 -35.8447 17.7178 -45.1133 32.4004c-9.35156 14.6826 -13.124 30.6777 -11.4014 47.9023c1.63965 17.2256 8.69434 34.3682 21.0801 51.3477s29.6113 30.6777 51.8398 41.0127s49.2148 16.2412 80.958 17.7178
c31.8262 1.39355 68.2451 -4.42969 109.258 -17.7178c17.9639 -6.31641 34.2861 -10.6631 48.9688 -12.8779c14.5186 -2.37891 27.2324 -3.77344 37.8955 -4.42969c12.3857 8.69531 25.0176 15.4209 37.8955 20.3428c12.96 4.83887 26.7402 7.2998 41.3408 7.2998
c24.8535 0 42.3252 -3.36328 52.7422 -10.335c10.417 -6.89062 13.3701 -14.1084 8.8584 -21.5723c-6.72559 -10.9102 -22.0645 -17.9639 -46.0156 -21.0811c-23.8691 -3.19922 -52.4141 -2.54297 -85.5527 2.13281c-6.15137 -10.417 -13.2051 -23.623 -21.0801 -39.7002
c-7.87402 -16.1592 -16.1592 -33.876 -24.9355 -53.1523c-8.69434 -19.2754 -18.0459 -39.7822 -28.2168 -61.6826c-10.0889 -21.9004 -20.834 -43.7188 -32.0713 -65.6201h75.1348v-19.9316zM78.0879 284.032c4.51172 -10.6631 14.3545 -18.292 29.5293 -22.8027
c18.5371 -6.39844 38.6338 -6.64453 60.2881 -0.902344c21.6543 5.74121 42.6533 14.2725 62.9131 25.4277c20.2598 11.2373 38.9619 23.2949 56.0234 36.2549c17.2246 12.96 30.5127 23.459 40.1094 31.4971c3.36328 4.10156 6.72656 7.95703 10.0898 11.6475
c3.3623 3.77344 7.05371 7.05469 10.9092 10.0078c-11.7295 2.29688 -23.7051 5.08496 -35.8447 8.20215c-12.0576 3.11719 -24.5254 6.72656 -37.4854 10.7451c-24.6904 8.12109 -48.2314 10.9092 -70.3779 8.61328c-22.2285 -2.21484 -42.0791 -7.62891 -59.5498 -15.9131
c-17.3896 -8.36719 -31.9902 -18.6201 -43.8018 -30.6777s-19.6855 -24.5254 -23.623 -37.1572s-3.69141 -24.2793 0.820312 -34.9424z" />
    <glyph glyph-name="uniF10D" unicode="&#xf10d;" 
d="M384.082 408.533v-472.615h-39.4668v472.615h-118.153v-472.615h-39.3848v236.472c-76.1436 0 -137.847 61.7021 -137.847 137.847c0.0820312 76.0615 61.7852 137.764 137.847 137.764h275.692v-39.4668h-78.6875zM187.077 408.533
c-54.4824 0 -98.5439 -44.0615 -98.5439 -98.3789c0 -54.4824 44.0615 -98.5439 98.5439 -98.5439v196.923v0z" />
    <glyph glyph-name="uniF109" unicode="&#xf109;" 
d="M492.067 315.734l-131.421 -132.856c-22.8047 -22.8887 -60.4736 -22.8887 -90.542 -2.44922l-2.61816 -2.61816c20.2705 -30.3213 20.1865 -68.4131 -2.5332 -91.3867l-131.421 -132.771c-26.4365 -26.7744 -73.2275 -22.6357 -104.562 9.03711
s-35.3887 78.8867 -8.95215 105.576l131.42 132.771c21.791 21.96 57.4336 22.8047 86.9102 4.64551l4.13867 4.13867c-17.9902 29.8145 -17.2305 65.7949 4.56055 87.7549l131.506 132.771c26.3516 26.7744 73.2266 22.6357 104.562 -9.03711
s35.3047 -78.8867 8.95312 -105.576zM170.863 163.283l-113.515 -114.612c-15.71 -15.8789 -15.71 -41.5547 0 -57.2646c15.625 -15.9629 41.0479 -15.9629 56.6729 0l113.516 114.613c11.1484 11.0645 13.9355 26.9424 9.45898 40.9629l-51.9434 -52.4502l-28.3779 28.7168
l50 50.5078c-12.584 2.36426 -26.0137 -0.591797 -35.8115 -10.4736zM454.735 392.763c-15.625 15.71 -41.0479 15.71 -56.7568 0l-113.6 -114.866c-9.79785 -9.88184 -12.6689 -23.3955 -10.3047 -36.1494l52.873 53.4639l28.3779 -28.7168l-54.7305 -55.4062
c13.8516 -4.47656 29.5615 -1.68945 40.626 9.54395l113.515 114.613c15.626 15.9629 15.626 41.4697 0 57.5176z" />
    <glyph glyph-name="uniF10C" unicode="&#xf10c;" 
d="M311.977 71.1816c0 0 186.891 185.003 130.176 128.862c41.5312 41.2021 41.5312 107.85 0 149.053c-41.6953 41.2031 -109.163 41.2031 -150.694 0c89.792 88.9717 -92.1738 -91.0244 -232.937 -230.556c-26.4287 -26.1016 -26.4287 -68.6172 0 -94.8818
c26.4287 -26.1006 69.4375 -26.1006 95.8662 0c123.445 122.213 283.906 281.197 205.522 203.47c11.4092 11.2451 11.4092 29.4658 0 40.7109c-11.4082 11.2441 -29.7939 11.2441 -41.2031 0c41.3672 40.875 -102.597 -101.776 -102.597 -101.776l-27.4141 27.25
l109.491 108.342l0.821289 -0.65625c26.4287 19.6982 64.1025 17.8105 88.3154 -6.07324c24.0488 -23.8848 25.9365 -61.2305 6.07324 -87.4951l0.657227 -0.65625l-219.147 -216.85l-0.328125 0.246094c-41.7773 -34.6367 -104.156 -32.502 -143.472 6.40234
c-39.3154 38.9053 -41.3672 100.709 -6.40234 141.994l-0.492188 0.410156l246.726 244.182l0.328125 -0.329102c57.0439 49.3291 143.8 47.4414 198.135 -6.64844c54.5 -53.8428 56.6338 -139.777 6.56641 -196.247l0.328125 -0.328125l-136.905 -135.593z" />
    <glyph glyph-name="uniF106" unicode="&#xf106;" 
d="M324.923 448l-98.543 -512h-39.3027l98.543 512h39.3027z" />
    <glyph glyph-name="uniF10B" unicode="&#xf10b;" 
d="M512 34.4619h-144.656h-12.8818h-39.3848v13.7842c46.4404 22.0723 78.7686 69.0869 78.7686 124.062c0 76.1436 -61.7021 137.847 -137.846 137.847s-137.846 -61.7031 -137.846 -137.847c0 -54.9746 32.3281 -101.907 78.7686 -124.062v-13.7842h-39.3848h-12.7998
h-144.738v39.2197h108.964c-18.9531 28.2256 -30.1943 62.0312 -30.1943 98.626c0 97.7236 79.3438 177.23 177.23 177.23s177.23 -79.5068 177.23 -177.23c0 -36.5127 -11.2412 -70.3174 -30.1123 -98.5439h108.882v-39.3018v0z" />
    <glyph glyph-name="uniF108" unicode="&#xf108;" 
d="M0 -64v39.3027h512v-39.3027h-512zM-0 93.5381v39.3848h393.846v-39.3848h-393.846v0zM-0 251.077v39.3848h512v-39.3848h-512v0zM-0 408.615v39.3848h393.846v-39.3848h-393.846v0z" />
    <glyph glyph-name="uniF112" unicode="&#xf112;" 
d="M347.159 273.641c48.3281 -7.87695 92.5537 -28.2256 124.062 -65.3945c89.6816 -105.764 -31.7539 -283.487 -157.21 -263.631c-26.4209 4.2666 -15.0977 44.3896 11.0762 40.2051c80.9033 -12.9639 156.144 96.3281 127.18 170.831
c-18.1328 46.8516 -63.8359 69.9072 -111.098 75.9795c-17.4766 -112.328 -57.1074 -274.626 -169.025 -292.923c-173.21 -28.1436 -212.513 170.092 -93.5381 265.271c21.0049 16.8203 46.5225 31.4258 74.3379 43.0771
c-0.574219 24.6973 -0.574219 49.4766 -0.410156 74.666c-41.9277 -3.36328 -84.3486 -2.70703 -127.672 4.51367c-26.4199 4.43066 -15.1797 44.5537 10.9951 40.2051c39.4668 -6.72852 78.4414 -7.05664 117.087 -3.36426
c0.246094 21.1689 0.410156 42.748 0.410156 64.7383c-0.0820312 26.9131 41.4365 26.9131 41.5186 0c0.0820312 -20.2666 -0.164062 -40.123 -0.328125 -59.8154c53.4971 8.5332 106.42 22.8105 159.425 36.5947c25.9287 6.72852 36.9238 -33.4766 10.9951 -40.2051
c-57.2715 -14.9336 -113.805 -29.4561 -170.83 -37.6611c-0.164062 -21.8262 -0.24707 -43.3232 0.164062 -64.7383c36.1025 10.666 74.3379 16.4922 111.507 15.6709c0.493164 3.85645 1.23145 7.54883 1.72363 11.4053c3.36426 26.2568 44.8818 26.585 41.5996 0
c-0.574219 -4.84082 -1.3125 -10.0098 -1.96875 -15.4258zM56.123 24.2871v0c29.0459 -37.9893 86.1543 -65.7227 130.052 -34.9541c3.69141 2.54395 7.1377 5.49805 10.666 8.28711c-26.8301 69.5801 -37.9072 137.026 -42.0918 205.293
c-24.041 -10.8311 -46.2773 -24.6152 -64.1641 -42.4209c-31.8359 -31.5898 -70.9746 -88.4512 -34.4619 -136.205zM228.513 32c13.9492 19.3643 24.8613 41.0254 33.1484 63.2617c16.7393 45.0459 28.6367 91.3232 37.252 138.502
c-33.4775 -0.492188 -69.1699 -5.49707 -103.139 -15.4248c3.2002 -62.3594 11.7334 -123.897 32.7383 -186.339z" />
    <glyph glyph-name="uniF104" unicode="&#xf104;" 
d="M0 -64v512h512v-512h-512zM472.615 408.533h-433.23v-433.148h433.23v433.148v0zM118.154 81.9688l247.794 247.959h-90.2559v39.3848h118.153h39.3848v-39.3848v-118.071h-39.3848v90.2568l-247.795 -247.877h90.2568v-39.3848h-118.153h-39.3848v39.3848v118.153
h39.3848v-90.4209z" />
  </font>
</defs>
</svg>
